<svg width="80" height="64" viewBox="0 0 80 64" fill="none" xmlns="http://www.w3.org/2000/svg">
<g filter="url(#filter0_d_76_4964)">
<path d="M48.1083 29.8916L43.8917 34.1083C43.35 33.5666 43.0167 32.8249 43.0167 31.9999C43.0167 30.3499 44.35 29.0166 46 29.0166C46.825 29.0166 47.5667 29.3499 48.1083 29.8916Z" stroke="black" stroke-opacity="0.6" stroke-width="1.5" stroke-linecap="round" stroke-linejoin="round"/>
<path d="M50.85 26.8084C49.3917 25.7084 47.725 25.1084 46 25.1084C43.0583 25.1084 40.3167 26.8417 38.4083 29.8417C37.6583 31.0167 37.6583 32.9917 38.4083 34.1667C39.0667 35.2001 39.8333 36.0917 40.6667 36.8084" stroke="black" stroke-opacity="0.6" stroke-width="1.5" stroke-linecap="round" stroke-linejoin="round"/>
<path d="M43.0167 38.2751C43.9667 38.6751 44.975 38.8917 46 38.8917C48.9417 38.8917 51.6833 37.1584 53.5917 34.1584C54.3417 32.9834 54.3417 31.0084 53.5917 29.8334C53.3167 29.4001 53.0167 28.9917 52.7083 28.6084" stroke="black" stroke-opacity="0.6" stroke-width="1.5" stroke-linecap="round" stroke-linejoin="round"/>
<path d="M48.925 32.5833C48.7083 33.7583 47.75 34.7166 46.575 34.9333" stroke="black" stroke-opacity="0.6" stroke-width="1.5" stroke-linecap="round" stroke-linejoin="round"/>
<path d="M43.8917 34.1084L37.6667 40.3334" stroke="black" stroke-opacity="0.6" stroke-width="1.5" stroke-linecap="round" stroke-linejoin="round"/>
<path d="M54.3333 23.6667L48.1083 29.8917" stroke="black" stroke-opacity="0.6" stroke-width="1.5" stroke-linecap="round" stroke-linejoin="round"/>
</g>
<defs>
<filter id="filter0_d_76_4964" x="0" y="-14" width="100" height="100" filterUnits="userSpaceOnUse" color-interpolation-filters="sRGB">
<feFlood flood-opacity="0" result="BackgroundImageFix"/>
<feColorMatrix in="SourceAlpha" type="matrix" values="0 0 0 0 0 0 0 0 0 0 0 0 0 0 0 0 0 0 127 0" result="hardAlpha"/>
<feOffset dx="4" dy="4"/>
<feGaussianBlur stdDeviation="20"/>
<feComposite in2="hardAlpha" operator="out"/>
<feColorMatrix type="matrix" values="0 0 0 0 0 0 0 0 0 0 0 0 0 0 0 0 0 0 0.1 0"/>
<feBlend mode="normal" in2="BackgroundImageFix" result="effect1_dropShadow_76_4964"/>
<feBlend mode="normal" in="SourceGraphic" in2="effect1_dropShadow_76_4964" result="shape"/>
</filter>
</defs>
</svg>
