<svg width="80" height="64" viewBox="0 0 80 64" fill="none" xmlns="http://www.w3.org/2000/svg">
<g filter="url(#filter0_d_76_4948)">
<path d="M48.9833 31.9999C48.9833 33.6499 47.65 34.9833 46 34.9833C44.35 34.9833 43.0167 33.6499 43.0167 31.9999C43.0167 30.3499 44.35 29.0166 46 29.0166C47.65 29.0166 48.9833 30.3499 48.9833 31.9999Z" stroke="black" stroke-opacity="0.6" stroke-width="1.5" stroke-linecap="round" stroke-linejoin="round"/>
<path d="M46 38.8918C48.9417 38.8918 51.6833 37.1584 53.5917 34.1584C54.3417 32.9834 54.3417 31.0084 53.5917 29.8334C51.6833 26.8334 48.9417 25.1001 46 25.1001C43.0583 25.1001 40.3167 26.8334 38.4083 29.8334C37.6583 31.0084 37.6583 32.9834 38.4083 34.1584C40.3167 37.1584 43.0583 38.8918 46 38.8918Z" stroke="black" stroke-opacity="0.6" stroke-width="1.5" stroke-linecap="round" stroke-linejoin="round"/>
</g>
<defs>
<filter id="filter0_d_76_4948" x="0" y="-14" width="100" height="100" filterUnits="userSpaceOnUse" color-interpolation-filters="sRGB">
<feFlood flood-opacity="0" result="BackgroundImageFix"/>
<feColorMatrix in="SourceAlpha" type="matrix" values="0 0 0 0 0 0 0 0 0 0 0 0 0 0 0 0 0 0 127 0" result="hardAlpha"/>
<feOffset dx="4" dy="4"/>
<feGaussianBlur stdDeviation="20"/>
<feComposite in2="hardAlpha" operator="out"/>
<feColorMatrix type="matrix" values="0 0 0 0 0 0 0 0 0 0 0 0 0 0 0 0 0 0 0.1 0"/>
<feBlend mode="normal" in2="BackgroundImageFix" result="effect1_dropShadow_76_4948"/>
<feBlend mode="normal" in="SourceGraphic" in2="effect1_dropShadow_76_4948" result="shape"/>
</filter>
</defs>
</svg>
